<svg xmlns="http://www.w3.org/2000/svg" xmlns:xlink="http://www.w3.org/1999/xlink" viewBox="0 0 409.70095 417.76004"><defs><clipPath id="a" transform="translate(1.03 5.06003)"><circle cx="203.82001" cy="203.82001" r="203.82001" style="fill:none"/></clipPath></defs><title>xezer-favicon</title><g style="clip-path:url(#a)"><path d="M390.76,287.75c-1.68,8.07-6.28,14.84-10.34,21.71-9.65,16.31-20.94,31.47-34.8,44.5-30.66,28.83-66.04,48.73-107.81,56.42-3.96.73-8.31-.48-11.87,2.32H183.95c-0.29-1.51-1.49-1.55-2.66-1.67-27.52-2.9-52.92-12.26-76.85-25.75a199.95442,199.95442,0,0,1-58.27-49.33c-11.59-14.43-22.31-29.27-28.25-47.04,0.43-1.19-.08-2.17-0.51-3.27-3.85-9.97-7.53-20.01-10.76-30.21-0.56-1.78.5-4.57-2.33-5.46-1.04-7.1-4.29-13.87-3.27-21.29,2.2-2.03,4.38-4.08,6.61-6.08a297.31152,297.31152,0,0,1,78.33-50.84,290.78708,290.78708,0,0,1,93.13-23.83,249.0033,249.0033,0,0,1,50.76.81,305.50177,305.50177,0,0,1,55.92,11.64c17.37,5.37,33.82,12.85,50.12,20.76,12.58,7.99,25.94,14.74,37.9,23.72,5.73,4.3,11.72,8.29,17.06,13.42a2.244,2.244,0,0,1-2.81-.1c-6.46-4.08-12.83-8.32-19.41-12.2-24.75-14.56-50.52-26.68-78.83-32.76-20.52-4.41-40.96-5.13-60.69,2.86-29.41,11.91-47.44,33.82-50.72,65.44-2.73,26.34,8.39,47.82,30.22,62.89,24.14,16.67,51.7,20.72,80.11,17.93,28.47-2.8,55.6-11.19,81.27-23.99C376.96,294.88,383.84,291.29,390.76,287.75Z" transform="translate(1.03 5.06003)" style="fill:#1d3faa"/><path d="M225.94-5.06c-0.76,2.51,1.31,1.57,2.23,1.68,48.5,5.98,89.51,26.88,123.14,62.16,29.58,31.02,47.6,67.87,54.71,110.15,3.33,19.82,3.15,39.65,1.5,59.56a4.16985,4.16985,0,0,1-.65,1.3c-2.84-5.47-2.05-11.57-3.09-17.36-5.94-33.06-17.46-63.89-37.29-91.27-10.16-14.03-21.54-27.04-35.09-37.88a215.04,215.04,0,0,0-41.43-26.26c-22.99-11.01-47.21-16.22-72.33-17.98-9.75-.68-19.52.72-29.25,1.82a176.383,176.383,0,0,0-39.01,9.23c-19.75,6.97-37.38,17.64-53.98,30.16C85.03,88.08,75.96,97.4,67.52,107.18a200.8981,200.8981,0,0,0-34.18,56.17c-3.58,8.84-7.87,17.59-8.42,27.41-1.33,1.21-2.58,2.54-4.01,3.62-7.28,5.51-14.61,10.96-21.92,16.43V180.83c2.37,0.55,1.59-1.39,1.69-2.34a195.71741,195.71741,0,0,1,26.18-79.69c34.59-58.37,85.32-92.88,152.83-102.21,0.91-.13,2.98.87,2.26-1.65Q203.94-5.06,225.94-5.06Z" transform="translate(1.03 5.06003)" style="fill:#1d3faa"/><path d="M1.04,228.68c-0.53-.66-0.48-2.71-2.07-0.87v-2a2.62641,2.62641,0,0,0,.99-0.13c0.2-.81-0.45-0.81-0.99-0.87V210.82c7.31-5.47,14.64-10.92,21.92-16.43,1.43-1.08,2.68-2.41,4.01-3.62a8.27227,8.27227,0,0,0,2.29-.8c18.13-13.42,38.11-23.47,58.89-31.96a275.126,275.126,0,0,1,146.8-16.91c23.48,3.89,46.02,11.08,67.95,20.25,11.12,4.65,21.66,10.49,32.3,16.12,1.54,0.82,2.95,1.62,2.78,3.68-16.3-7.91-32.75-15.39-50.12-20.76a305.50283,305.50283,0,0,0-55.92-11.64,249.71062,249.71062,0,0,0-50.76-.81,291.04846,291.04846,0,0,0-93.13,23.83,297.312,297.312,0,0,0-78.33,50.84C5.43,224.6,3.25,226.65,1.04,228.68Z" transform="translate(1.03 5.06003)" style="fill:#fbfafb"/><path d="M-1.02,224.81c0.54,0.06,1.19.06,0.99,0.87a2.66369,2.66369,0,0,1-.99.13v-1Z" transform="translate(1.03 5.06003)" style="fill:#000001"/><path d="M17.92,288.91c-4.07-4.89-5.39-11.03-7.46-16.8-2.58-7.22-5.06-14.5-6.14-22.14,2.83,0.89,1.77,3.68,2.33,5.46,3.23,10.2,6.91,20.24,10.76,30.21C17.84,286.74,18.35,287.72,17.92,288.91Z" transform="translate(1.03 5.06003)" style="fill:#1d3faa"/></g></svg>